<svg id="visual" viewBox="0 0 2350 1176" width="2350" height="1176" xmlns="http://www.w3.org/2000/svg" xmlns:xlink="http://www.w3.org/1999/xlink" version="1.1"><rect x="0" y="0" width="2350" height="1176" fill="#549e6b"></rect><defs><linearGradient id="grad1_0" x1="50%" y1="100%" x2="100%" y2="0%"><stop offset="10.03401360544218%" stop-color="#549e6b" stop-opacity="1"></stop><stop offset="89.96598639455782%" stop-color="#549e6b" stop-opacity="1"></stop></linearGradient></defs><defs><linearGradient id="grad2_0" x1="0%" y1="100%" x2="50%" y2="0%"><stop offset="10.03401360544218%" stop-color="#549e6b" stop-opacity="1"></stop><stop offset="89.96598639455782%" stop-color="#549e6b" stop-opacity="1"></stop></linearGradient></defs><g transform="translate(2350, 1176)"><path d="M-646.8 0C-631.1 -115.3 -615.4 -230.5 -560.1 -323.4C-504.9 -416.3 -410 -486.8 -310 -536.9C-210 -587.1 -105 -617 0 -646.8L0 0Z" fill="#0b752c"></path></g><g transform="translate(0, 0)"><path d="M646.8 0C623.4 108.8 600 217.5 549.1 317C498.1 416.5 419.5 506.7 323.4 560.1C227.3 613.6 113.6 630.2 0 646.8L0 0Z" fill="#0b752c"></path></g></svg>