<svg id="visual" viewBox="0 0 2350 1176" width="2350" height="1176" xmlns="http://www.w3.org/2000/svg" xmlns:xlink="http://www.w3.org/1999/xlink" version="1.1"><path d="M0 366L35.7 403.2C71.3 440.3 142.7 514.7 213.8 487.2C285 459.7 356 330.3 427.2 257.8C498.3 185.3 569.7 169.7 641 167.7C712.3 165.7 783.7 177.3 854.8 204.8C926 232.3 997 275.7 1068.2 316.8C1139.3 358 1210.7 397 1281.8 367.5C1353 338 1424 240 1495.2 208.7C1566.3 177.3 1637.7 212.7 1709 230.3C1780.3 248 1851.7 248 1922.8 265.7C1994 283.3 2065 318.7 2136.2 320.7C2207.3 322.7 2278.7 291.3 2314.3 275.7L2350 260L2350 0L2314.3 0C2278.7 0 2207.3 0 2136.2 0C2065 0 1994 0 1922.8 0C1851.7 0 1780.3 0 1709 0C1637.7 0 1566.3 0 1495.2 0C1424 0 1353 0 1281.8 0C1210.7 0 1139.3 0 1068.2 0C997 0 926 0 854.8 0C783.7 0 712.3 0 641 0C569.7 0 498.3 0 427.2 0C356 0 285 0 213.8 0C142.7 0 71.3 0 35.7 0L0 0Z" fill="#349d4f"></path><path d="M0 460L35.7 505C71.3 550 142.7 640 213.8 665.5C285 691 356 652 427.2 624.5C498.3 597 569.7 581 641 577C712.3 573 783.7 581 854.8 569.3C926 557.7 997 526.3 1068.2 528.3C1139.3 530.3 1210.7 565.7 1281.8 587.2C1353 608.7 1424 616.3 1495.2 624.2C1566.3 632 1637.7 640 1709 644C1780.3 648 1851.7 648 1922.8 669.5C1994 691 2065 734 2136.2 730C2207.3 726 2278.7 675 2314.3 649.5L2350 624L2350 258L2314.3 273.7C2278.7 289.3 2207.3 320.7 2136.2 318.7C2065 316.7 1994 281.3 1922.8 263.7C1851.7 246 1780.3 246 1709 228.3C1637.7 210.7 1566.3 175.3 1495.2 206.7C1424 238 1353 336 1281.8 365.5C1210.7 395 1139.3 356 1068.2 314.8C997 273.7 926 230.3 854.8 202.8C783.7 175.3 712.3 163.7 641 165.7C569.7 167.7 498.3 183.3 427.2 255.8C356 328.3 285 457.7 213.8 485.2C142.7 512.7 71.3 438.3 35.7 401.2L0 364Z" fill="#096d2a"></path><path d="M0 742L35.7 783.2C71.3 824.3 142.7 906.7 213.8 932.2C285 957.7 356 926.3 427.2 898.8C498.3 871.3 569.7 847.7 641 845.7C712.3 843.7 783.7 863.3 854.8 857.5C926 851.7 997 820.3 1068.2 834C1139.3 847.7 1210.7 906.3 1281.8 898.5C1353 890.7 1424 816.3 1495.2 796.8C1566.3 777.3 1637.7 812.7 1709 832.2C1780.3 851.7 1851.7 855.3 1922.8 865.2C1994 875 2065 891 2136.2 906.8C2207.3 922.7 2278.7 938.3 2314.3 946.2L2350 954L2350 622L2314.3 647.5C2278.7 673 2207.3 724 2136.2 728C2065 732 1994 689 1922.8 667.5C1851.7 646 1780.3 646 1709 642C1637.7 638 1566.3 630 1495.2 622.2C1424 614.3 1353 606.7 1281.8 585.2C1210.7 563.7 1139.3 528.3 1068.2 526.3C997 524.3 926 555.7 854.8 567.3C783.7 579 712.3 571 641 575C569.7 579 498.3 595 427.2 622.5C356 650 285 689 213.8 663.5C142.7 638 71.3 548 35.7 503L0 458Z" fill="#065623"></path><path d="M0 965L35.7 990.5C71.3 1016 142.7 1067 213.8 1073C285 1079 356 1040 427.2 1012.7C498.3 985.3 569.7 969.7 641 961.8C712.3 954 783.7 954 854.8 955.8C926 957.7 997 961.3 1068.2 975C1139.3 988.7 1210.7 1012.3 1281.8 1012.3C1353 1012.3 1424 988.7 1495.2 978.8C1566.3 969 1637.7 973 1709 969.2C1780.3 965.3 1851.7 953.7 1922.8 975.2C1994 996.7 2065 1051.3 2136.2 1072.8C2207.3 1094.3 2278.7 1082.7 2314.3 1076.8L2350 1071L2350 952L2314.3 944.2C2278.7 936.3 2207.3 920.7 2136.2 904.8C2065 889 1994 873 1922.8 863.2C1851.7 853.3 1780.3 849.7 1709 830.2C1637.7 810.7 1566.3 775.3 1495.2 794.8C1424 814.3 1353 888.7 1281.8 896.5C1210.7 904.3 1139.3 845.7 1068.2 832C997 818.3 926 849.7 854.8 855.5C783.7 861.3 712.3 841.7 641 843.7C569.7 845.7 498.3 869.3 427.2 896.8C356 924.3 285 955.7 213.8 930.2C142.7 904.7 71.3 822.3 35.7 781.2L0 740Z" fill="#096d2a"></path><path d="M0 1177L35.7 1177C71.3 1177 142.7 1177 213.8 1177C285 1177 356 1177 427.2 1177C498.3 1177 569.7 1177 641 1177C712.3 1177 783.7 1177 854.8 1177C926 1177 997 1177 1068.2 1177C1139.3 1177 1210.7 1177 1281.8 1177C1353 1177 1424 1177 1495.2 1177C1566.3 1177 1637.7 1177 1709 1177C1780.3 1177 1851.7 1177 1922.8 1177C1994 1177 2065 1177 2136.2 1177C2207.3 1177 2278.7 1177 2314.3 1177L2350 1177L2350 1069L2314.3 1074.8C2278.7 1080.7 2207.3 1092.3 2136.2 1070.8C2065 1049.3 1994 994.7 1922.8 973.2C1851.7 951.7 1780.3 963.3 1709 967.2C1637.7 971 1566.3 967 1495.2 976.8C1424 986.7 1353 1010.3 1281.8 1010.3C1210.7 1010.3 1139.3 986.7 1068.2 973C997 959.3 926 955.7 854.8 953.8C783.7 952 712.3 952 641 959.8C569.7 967.7 498.3 983.3 427.2 1010.7C356 1038 285 1077 213.8 1071C142.7 1065 71.3 1014 35.7 988.5L0 963Z" fill="#349d4f"></path></svg>