<svg id="visual" viewBox="0 0 2350 1176" width="2350" height="1176" xmlns="http://www.w3.org/2000/svg" xmlns:xlink="http://www.w3.org/1999/xlink" version="1.1"><rect x="0" y="0" width="2350" height="1176" fill="#549e6b"></rect><path d="M0 1042L78.3 1046.7C156.7 1051.3 313.3 1060.7 470 1058.2C626.7 1055.7 783.3 1041.3 940 1033.7C1096.7 1026 1253.3 1025 1410 1036C1566.7 1047 1723.3 1070 1880 1076.3C2036.7 1082.7 2193.3 1072.3 2271.7 1067.2L2350 1062L2350 1177L2271.7 1177C2193.3 1177 2036.7 1177 1880 1177C1723.3 1177 1566.7 1177 1410 1177C1253.3 1177 1096.7 1177 940 1177C783.3 1177 626.7 1177 470 1177C313.3 1177 156.7 1177 78.3 1177L0 1177Z" fill="#0b752c" stroke-linecap="round" stroke-linejoin="miter"></path></svg>