<svg xmlns="http://www.w3.org/2000/svg" xmlns:xlink="http://www.w3.org/1999/xlink" version="1.1" width="256" height="256" viewBox="0 0 256 256" xml:space="preserve">
<desc>Created with Fabric.js 1.7.22</desc>
<defs>
</defs>
<g transform="translate(128 128) scale(0.72 0.72)" style="">
	<g style="stroke: none; stroke-width: 0; stroke-dasharray: none; stroke-linecap: butt; stroke-linejoin: miter; stroke-miterlimit: 10; fill: none; fill-rule: nonzero; opacity: 1;" transform="translate(-175.05 -175.05000000000004) scale(3.89 3.89)" >
	<path d="M 89.357 64.205 l -7.998 -4.618 l -7.998 -4.618 c -0.857 -0.495 -1.928 0.124 -1.928 1.113 v 5.82 c -13.067 -1.598 -23.222 -12.756 -23.222 -26.247 v -20.25 c 0 -0.688 -0.558 -1.246 -1.246 -1.246 h -3.931 c -0.688 0 -1.246 0.558 -1.246 1.246 v 20.25 c 0 13.491 -10.156 24.648 -23.222 26.247 v -5.82 c 0 -0.989 -1.071 -1.608 -1.928 -1.113 l -7.998 4.618 l -7.998 4.618 c -0.857 0.495 -0.857 1.731 0 2.226 l 7.998 4.618 l 7.998 4.618 c 0.857 0.495 1.928 -0.124 1.928 -1.113 v -6.184 C 30.24 67.225 40.142 59.952 45 49.817 c 4.858 10.135 14.76 17.408 26.434 18.551 v 6.184 c 0 0.989 1.071 1.608 1.928 1.113 l 7.998 -4.618 l 7.998 -4.618 C 90.214 65.936 90.214 64.699 89.357 64.205 z" style="stroke: none; stroke-width: 1; stroke-dasharray: none; stroke-linecap: butt; stroke-linejoin: miter; stroke-miterlimit: 10; fill: rgb(0,0,0); fill-rule: nonzero; opacity: 1;" transform=" matrix(1 0 0 1 0 0) " stroke-linecap="round" />
</g>
</g>
</svg>